<svg xmlns="http://www.w3.org/2000/svg" viewBox="0 0 896 128" width="896" height="128">
<view id="idle" viewBox="0 0 128 128"/><view id="happy" viewBox="128 0 128 128"/><view id="working" viewBox="256 0 128 128"/><view id="warning" viewBox="384 0 128 128"/><view id="celebrate" viewBox="512 0 128 128"/><view id="empty" viewBox="640 0 128 128"/><view id="receipt-scanning" viewBox="768 0 128 128"/>
<defs><g id="base"><ellipse cx="64" cy="75" rx="34" ry="31" fill="#f5d95c"/><circle cx="64" cy="51" r="28" fill="#f5d95c"/><circle cx="54" cy="48" r="3.5" fill="#2e2a23"/><circle cx="74" cy="48" r="3.5" fill="#2e2a23"/><path d="M53 61q11 8 22 0q-11-10-22 0Z" fill="#e88a2d"/><path d="M39 78q-13 6-7 16 13-1 17-10" fill="#efd05a"/><path d="M89 78q13 6 7 16-13-1-17-10" fill="#efd05a"/><ellipse cx="64" cy="108" rx="28" ry="7" fill="#000" opacity=".08"/></g></defs>
<g><use href="#base"/></g>
<g transform="translate(128)"><use href="#base"/><path d="M28 27c-7-8-18 2-8 11l8 7 8-7c10-9-1-19-8-11Z" fill="#e86f8b"/><path d="M101 28c-6-7-16 2-7 10l7 6 7-6c9-8-1-17-7-10Z" fill="#e86f8b"/></g>
<g transform="translate(256)"><use href="#base"/><rect x="80" y="78" width="32" height="24" rx="5" fill="#fff" stroke="#c6a832" stroke-width="2"/><path d="M87 86h17m-17 7h13" stroke="#b9a157" stroke-width="2" stroke-linecap="round"/><path d="M79 82l-8 15" stroke="#4a515b" stroke-width="4" stroke-linecap="round"/></g>
<g transform="translate(384)"><use href="#base"/><circle cx="99" cy="30" r="17" fill="#fff4d6" stroke="#d89a31" stroke-width="2"/><path d="M99 21v11" stroke="#8a5c19" stroke-width="4" stroke-linecap="round"/><circle cx="99" cy="38" r="2.5" fill="#8a5c19"/></g>
<g transform="translate(512)"><use href="#base"/><path d="M20 26l8 8m-3-14 3 14m79-8-8 8m3-14-3 14" stroke="#e86f8b" stroke-width="3" stroke-linecap="round"/><circle cx="28" cy="18" r="3" fill="#6d8ee6"/><circle cx="101" cy="18" r="3" fill="#69ad78"/><path d="M45 22l4 7 7-4m24-3 4 7 7-4" fill="none" stroke="#e1a338" stroke-width="3"/></g>
<g transform="translate(640)"><use href="#base"/><rect x="82" y="80" width="31" height="20" rx="5" fill="#fff8de" stroke="#c6a832" stroke-width="2"/><path d="M87 85h21" stroke="#d8c981" stroke-width="2"/><circle cx="98" cy="91" r="3" fill="#d8c981"/></g>
<g transform="translate(768)"><use href="#base"/><path d="M34 78h39v35l-5-3-5 3-5-3-5 3-5-3-5 3-5-3Z" fill="#fff" stroke="#b79b2d" stroke-width="2"/><path d="M41 87h24m-24 7h19m-19 7h12" stroke="#c1aa55" stroke-width="2.5" stroke-linecap="round"/><circle cx="88" cy="88" r="12" fill="#fff8de" stroke="#df9234" stroke-width="3"/><path d="m97 97 10 10" stroke="#df9234" stroke-width="5" stroke-linecap="round"/><path d="M38 84 28 92m47-8 8 8" stroke="#d4b93d" stroke-width="5" stroke-linecap="round"/></g>
</svg>